<svg xmlns="http://www.w3.org/2000/svg" viewBox="0 0 70 70" role="img" aria-label="말밥">
  <title>말밥</title>
  <defs>
    <radialGradient id="fg" cx="40%" cy="35%" r="70%">
      <stop offset="0%" stop-color="#EDD045"/>
      <stop offset="100%" stop-color="#B8921A"/>
    </radialGradient>
  </defs>
  <circle cx="35" cy="35" r="32" fill="url(#fg)"/>
  <g transform="translate(35,35)">
    <path fill="#0F2035" d="
      M -14,22 C -20,16 -24,8 -22,1 C -20,-6 -18,-12 -16,-17
      C -14,-21 -11,-24 -8,-25 L -4,-23 L -1,-28 L 2,-22
      C 6,-22 10,-19 12,-15 C 14,-11 14,-5 12,1
      C 10,5 8,9 7,12 C 6,15 6,18 5,21 L -7,22 Z
    "/>
    <circle cx="8" cy="-13" r="2.8" fill="#EDD045"/>
    <ellipse cx="12" cy="3" rx="1.4" ry="1.8" fill="#8B6914" opacity="0.65" transform="rotate(-15,12,3)"/>
  </g>
  <circle cx="35" cy="35" r="32" fill="none" stroke="#C4980D" stroke-width="1.5"/>
</svg>
