<svg xmlns="http://www.w3.org/2000/svg" width="654" height="240" viewBox="0 0 654 240">
<g transform="translate(28,26) scale(1.7)">
<path d="M 69.4 78.1 A 33 36 0 1 0 30.6 78.1" fill="none" stroke="#15924F" stroke-width="9" stroke-linecap="round"/>
<circle cx="78.58" cy="67" r="2.3" fill="#FFFFFF"/>
<circle cx="81.38" cy="37.87" r="2.3" fill="#FFFFFF"/>
<circle cx="63.42" cy="16.11" r="2.3" fill="#FFFFFF"/>
<circle cx="36.58" cy="16.11" r="2.3" fill="#FFFFFF"/>
<circle cx="18.62" cy="37.87" r="2.3" fill="#FFFFFF"/>
<circle cx="21.42" cy="67" r="2.3" fill="#FFFFFF"/>
<path d="M 26 49 L 38 49 L 44 37 L 50 61 L 56 43 L 62 49 L 74 49" fill="none" stroke="#15924F" stroke-width="4.5" stroke-linecap="round" stroke-linejoin="round"/>
</g>
<path d="M344 359Q337 358 312.5 358.0Q288 358 260.0 358.5Q232 359 207.0 359.0Q182 359 174 359H173Q155 359 137.5 359.5Q120 360 104.0 362.5Q88 365 75.0 371.0Q62 377 54 389Q45 402 41.5 422.0Q38 442 36.5 460.5Q35 479 35.5 493.0Q36 507 36 508V530Q36 541 36.0 555.0Q36 569 37 586Q37 604 37.5 618.0Q38 632 38 643V665Q38 668 38.0 676.0Q38 684 39.0 693.5Q40 703 42.0 712.5Q44 722 48 728Q57 742 66.5 748.5Q76 755 91 758Q96 759 106.0 759.5Q116 760 125 761Q136 762 148 762H374Q396 762 420.5 758.5Q445 755 464 743Q479 734 485.0 720.0Q491 706 493.0 690.0Q495 674 494.0 657.5Q493 641 493 627Q493 611 492.5 605.5Q492 600 493 584V529Q492 524 492.5 518.0Q493 512 493 506Q491 493 492.0 480.5Q493 468 493 454Q493 443 491.5 430.5Q490 418 485.5 405.5Q481 393 473.5 383.0Q466 373 454 369Q428 358 399.5 358.5Q371 359 344 359ZM698 46Q713 45 725.5 38.5Q738 32 743 16Q754 -20 717 -34Q705 -39 692.5 -40.0Q680 -41 669 -41H214Q194 -41 172.5 -41.0Q151 -41 129 -40Q108 -39 94.0 -25.0Q80 -11 78 12Q76 29 75.5 49.5Q75 70 75 84V93Q74 104 75.5 119.0Q77 134 86 145Q99 159 122.5 163.0Q146 167 168 167H189Q193 167 196.5 166.5Q200 166 203 166H628V209H193Q188 209 182.0 209.5Q176 210 171 209H146Q136 209 128.0 209.0Q120 209 112 211Q104 213 96.5 215.0Q89 217 84 225Q71 245 77 268Q80 276 86.0 280.5Q92 285 100.0 288.0Q108 291 115.5 292.5Q123 294 129 295Q137 296 144.5 296.5Q152 297 161 297H178Q183 297 187.0 296.5Q191 296 196 296H638Q689 296 716.0 280.5Q743 265 743 230V152Q743 138 737.0 125.0Q731 112 715 102Q701 94 688.0 93.5Q675 93 663 93H198V46ZM738 490V399Q738 373 723.0 353.5Q708 334 677 334Q660 334 649 341Q629 353 623.5 370.5Q618 388 618 396V695Q617 699 619.0 717.0Q621 735 627 747Q637 768 667 771Q704 776 722 756Q728 748 730.5 740.5Q733 733 735 725Q738 716 738.5 699.0Q739 682 738 672V601Q742 601 753.0 600.5Q764 600 776.0 599.5Q788 599 799.0 598.0Q810 597 815 596Q835 592 843.0 584.5Q851 577 853 566Q856 555 856.0 540.5Q856 526 850 516Q838 496 814.0 493.5Q790 491 761 490ZM216 637Q207 637 199.5 637.0Q192 637 186 635Q172 634 163 623Q159 618 158.5 608.0Q158 598 158 596V574Q157 566 157.0 559.5Q157 553 157 548V536Q157 536 157.0 530.0Q157 524 157.5 516.0Q158 508 160.0 500.0Q162 492 167 486Q175 476 193.0 474.5Q211 473 229 473H230Q256 474 273.0 473.5Q290 473 317 473Q325 473 333.5 472.5Q342 472 350 474Q358 475 361.0 479.0Q364 483 366 489Q368 497 368 502Q372 521 372 545Q372 561 372.5 567.0Q373 573 372 589Q371 597 371.5 605.0Q372 613 370 621Q366 632 357.0 633.5Q348 635 339 635Z" fill="#115E36" transform="translate(239.00,171.00) scale(0.15000,-0.15000)"/>
<path d="M590 -24Q581 -26 549.5 -26.5Q518 -27 475.0 -27.0Q432 -27 383.0 -26.5Q334 -26 291.0 -25.5Q248 -25 217.0 -25.0Q186 -25 178 -25Q158 -25 136.0 -22.0Q114 -19 97 -6Q86 3 79.5 16.5Q73 30 70.0 43.0Q67 56 66.0 66.0Q65 76 65 77V153Q65 182 65.5 206.5Q66 231 66 233Q66 247 71.0 259.5Q76 272 90 278Q97 281 105.5 282.0Q114 283 122 284Q139 285 156.5 278.5Q174 272 178 252V226Q180 211 185.0 211.5Q190 212 202 211H608V241Q609 259 615.5 270.0Q622 281 640 284Q654 287 675.0 286.0Q696 285 707 275Q717 266 717.0 253.5Q717 241 717 229Q715 183 717.0 138.0Q719 93 714 47Q713 33 709.0 23.5Q705 14 697 3Q689 -9 675.5 -14.0Q662 -19 647.0 -21.0Q632 -23 617.0 -23.0Q602 -23 590 -24ZM464 375Q464 365 458.5 355.0Q453 345 445.0 337.5Q437 330 427.0 324.5Q417 319 408 318Q382 314 364.0 316.0Q346 318 321 318Q266 318 211.5 319.0Q157 320 103 322Q87 323 76.5 333.5Q66 344 60.0 359.0Q54 374 52.0 390.5Q50 407 50 420Q50 441 49.5 467.0Q49 493 48.5 520.0Q48 547 48.0 573.5Q48 600 49 621Q50 634 49.5 649.0Q49 664 50.0 679.0Q51 694 53.5 708.5Q56 723 62 734Q69 747 82.0 755.0Q95 763 109.0 764.5Q123 766 136.5 761.0Q150 756 158 743Q174 716 174.5 680.5Q175 645 174 613H303H316H351Q353 635 352.0 652.0Q351 669 351 688Q351 705 356.5 726.5Q362 748 377 758Q388 766 407.0 766.5Q426 767 437 759Q448 751 453.5 735.5Q459 720 461 704Q464 686 464 665ZM714 682Q714 683 714.0 670.0Q714 657 714.0 639.5Q714 622 714.0 605.0Q714 588 714 581Q718 581 729.0 580.5Q740 580 752.0 579.5Q764 579 775.0 578.0Q786 577 791 576Q811 572 819.0 564.5Q827 557 829 546Q832 535 832.0 520.5Q832 506 826 496Q814 476 790.0 473.5Q766 471 737 470H714V391Q713 380 711.0 368.5Q709 357 703 346Q697 334 686 326Q672 316 653 316Q636 316 625 323Q615 329 609.0 338.0Q603 347 599.5 355.5Q596 364 595.0 370.5Q594 377 594 377V695Q593 699 595.0 717.0Q597 735 603 747Q613 768 643 771Q680 776 698 756Q704 748 706.5 740.5Q709 733 711 725Q714 715 714.5 704.0Q715 693 714 682ZM237 119Q228 119 217.5 119.5Q207 120 199.0 118.5Q191 117 185.5 112.5Q180 108 180 99Q180 88 181 83Q186 66 196.5 65.5Q207 65 220 66Q248 66 281.0 65.5Q314 65 344 64Q347 64 363.5 64.0Q380 64 404.0 64.5Q428 65 455.0 65.0Q482 65 506.0 65.5Q530 66 546.5 66.0Q563 66 566 66Q571 66 578.0 65.0Q585 64 591.0 65.0Q597 66 601.0 70.0Q605 74 605 82Q605 90 606.0 96.0Q607 102 601 109Q594 117 584.5 118.0Q575 119 565 118Q563 118 538.5 118.0Q514 118 477.5 118.0Q441 118 399.5 118.5Q358 119 322.0 119.0Q286 119 261.5 119.0Q237 119 237 119ZM351 440Q351 443 350.5 446.5Q350 450 351 455Q353 469 353.0 479.5Q353 490 351 504V521H250Q234 522 220 523Q208 524 194.5 523.5Q181 523 172 521Q170 504 171.5 487.5Q173 471 174 454Q174 443 175.0 439.0Q176 435 187 434Q198 433 209.5 433.5Q221 434 232 434H351Z" fill="#115E36" transform="translate(366.95,171.00) scale(0.15000,-0.15000)"/>
<path d="M657 68Q658 62 658.5 56.5Q659 51 659 44Q659 32 652 22Q649 17 644.0 12.5Q639 8 632 5Q607 -9 579 -5Q565 -1 554 8Q552 10 551.0 10.5Q550 11 549 13Q548 14 547.0 15.5Q546 17 544 18Q539 23 536.0 27.5Q533 32 530 37Q528 42 525.5 46.5Q523 51 520 56Q518 60 516.0 63.5Q514 67 513 71Q509 80 508 87L487 136Q418 136 349.5 135.5Q281 135 212 136L191 87Q189 83 188.5 79.0Q188 75 186 71Q184 67 182.5 63.5Q181 60 179 56Q176 51 173.5 46.5Q171 42 168 37Q166 32 163.0 27.5Q160 23 155 18Q153 17 152.0 15.5Q151 14 150 13Q149 11 148.0 10.5Q147 10 145 8Q134 -1 120 -5Q92 -9 67 5Q60 8 55.0 12.5Q50 17 47 22Q40 32 40 44Q40 51 40.5 56.5Q41 62 42 68Q44 77 47 86Q50 95 50 95L258 607L264 623Q266 629 269.0 634.0Q272 639 274 646Q279 659 285 669Q288 675 292.0 680.0Q296 685 300 690Q306 698 317 703Q331 708 349.5 708.0Q368 708 382 703Q393 698 399 690Q406 681 414 669Q420 659 425 646Q427 639 430.0 634.0Q433 629 435 623L441 607L649 95Q649 95 652 86Q655 77 657 68ZM420 313Q407 342 393.5 373.0Q380 404 365 436Q361 445 357.0 454.5Q353 464 349 473Q346 464 342.0 454.5Q338 445 334 436Q319 404 305.5 373.0Q292 342 279 313L261 269H438Z" fill="#1DB45A" transform="translate(491.45,171.00) scale(0.15000,-0.15000)"/>
<path d="M71 106 72 185 73 332Q74 364 74.0 398.0Q74 432 74 468Q74 504 74.0 532.0Q74 560 76 595V599Q77 609 77.5 619.5Q78 630 78 641Q79 659 89 680Q96 694 110 704Q126 712 141 712Q149 712 155.5 711.5Q162 711 168 710Q181 708 191 698Q197 693 202 682Q204 676 205.5 670.5Q207 665 208 659Q209 652 209.5 646.0Q210 640 210 634Q210 627 209.5 621.5Q209 616 209 610V593L203 74V64Q203 61 202.5 56.5Q202 52 201 46Q199 41 197.5 35.5Q196 30 194 24Q191 19 187.5 14.5Q184 10 179 6Q171 -2 153 -5Q126 -11 102 0Q90 8 85 20Q82 23 82 26Q81 28 80.0 29.0Q79 30 78 32Q76 37 75.0 42.5Q74 48 74 54Q73 59 72.5 64.0Q72 69 71 74Q70 82 71 91Z" fill="#1DB45A" transform="translate(596.30,171.00) scale(0.15000,-0.15000)"/>
</svg>
